<?xml version="1.0" encoding="utf-8"?>
<!-- Uploaded to: SVG Repo, www.svgrepo.com, Generator: SVG Repo Mixer Tools -->
<svg width="800px" height="800px" viewBox="0 0 1024 1024" class="icon"  version="1.1" xmlns="http://www.w3.org/2000/svg"><path d="M1006.933333 509.44V206.506667c-320.853333-104.96-669.013333-104.96-989.866666 0v302.933333c212.48 0 384 171.52 384 384h221.866666c0-211.626667 171.52-384 384-384z" fill="#FCE4EC" /><path d="M622.933333 910.506667H401.066667c-9.386667 0-17.066667-7.68-17.066667-17.066667 0-202.24-164.693333-366.933333-366.933333-366.933333-9.386667 0-17.066667-7.68-17.066667-17.066667V206.506667c0-7.68 5.12-13.653333 11.946667-16.213334C334.506667 85.333333 689.493333 85.333333 1012.053333 190.293333c6.826667 2.56 11.946667 8.533333 11.946667 16.213334v302.933333c0 9.386667-7.68 17.066667-17.066667 17.066667-202.24 0-366.933333 164.693333-366.933333 366.933333 0 9.386667-7.68 17.066667-17.066667 17.066667z m-204.8-34.133334h187.733334c8.533333-207.36 175.786667-374.613333 384-384v-273.066666c-308.906667-98.133333-646.826667-98.133333-955.733334 0v273.92c207.36 8.533333 374.613333 175.786667 384 383.146666z" fill="#EC407A" /><path d="M1006.933333 206.506667c-320.853333-104.96-669.013333-104.96-989.866666 0v238.933333c320.853333-104.96 669.013333-104.96 989.866666 0v-238.933333z" fill="#F8BBD0" /><path d="M204.8 492.373333H25.6v-162.133333l0.853333 0.853333c33.28 18.773333 69.12 29.866667 105.813334 37.546667 42.666667 8.533333 72.533333 31.573333 72.533333 80.213333v43.52z" fill="#FFEE58" /><path d="M204.8 509.44H25.6c-9.386667 0-17.066667-7.68-17.066667-17.066667v-162.133333c0-5.973333 3.413333-11.093333 8.533334-14.506667 5.12-3.413333 11.946667-3.413333 17.066666 0l0.853334 0.853334c29.013333 16.213333 62.293333 28.16 100.693333 35.84 70.826667 13.653333 86.186667 59.733333 86.186667 96.426666v43.52c0 9.386667-7.68 17.066667-17.066667 17.066667z m-162.133333-34.133333h145.066666v-26.453334c0-35.84-17.92-55.466667-58.88-63.146666-30.72-6.826667-59.733333-15.36-86.186666-27.306667v116.906667z" fill="#EC407A" /><path d="M819.2 492.373333h179.2v-162.133333l-0.853333 0.853333c-33.28 18.773333-69.12 29.866667-105.813334 37.546667-42.666667 8.533333-72.533333 31.573333-72.533333 80.213333v43.52z" fill="#FFEE58" /><path d="M998.4 509.44H819.2c-9.386667 0-17.066667-7.68-17.066667-17.066667v-43.52c0-36.693333 15.36-82.773333 86.186667-97.28 38.4-7.68 71.68-19.626667 100.693333-35.84h0.853334c5.12-2.56 11.946667-2.56 17.066666 0 5.12 3.413333 8.533333 8.533333 8.533334 14.506667v162.133333c0 9.386667-7.68 17.066667-17.066667 17.066667z m-162.133333-34.133333h145.066666V358.4c-26.453333 11.946667-55.466667 20.48-86.186666 27.306667-40.106667 7.68-58.88 27.306667-58.88 63.146666v26.453334z" fill="#EC407A" /><path d="M17.066667 509.44v64h0.853333c-0.853333 3.413333-0.853333 5.973333-0.853333 8.533333 0 21.333333 17.066667 38.4 38.4 38.4 15.36 0 29.013333-9.386667 34.986666-23.04 0.853333-1.706667 5.12 0.853333 4.266667 2.56-5.973333 6.826667-9.386667 15.36-9.386667 24.746667 0 21.333333 17.066667 38.4 38.4 38.4 11.946667 0 22.186667-5.12 29.866667-13.653333 5.12-5.973333 6.826667-5.12 4.266667 1.706666-2.56 5.12-3.413333 10.24-3.413334 16.213334 0 21.333333 17.066667 38.4 38.4 38.4 5.973333 0 11.946667-1.706667 17.066667-4.266667-2.56 5.12-4.266667 11.093333-4.266667 17.066667 0 21.333333 17.066667 38.4 38.4 38.4 13.653333 0 18.773333-1.706667 11.946667 6.826666-5.12 6.826667-7.68 14.506667-7.68 23.04 0 18.773333 14.506667 34.986667 32.426667 37.546667-4.266667 5.973333-6.826667 13.653333-6.826667 22.186667 0 21.333333 17.066667 38.4 38.4 38.4 4.266667 17.066667 89.6 8.533333 89.6 8.533333-0.853333-211.626667-172.373333-384-384.853333-384z" fill="#F48FB1" /><path d="M358.4 913.066667c-33.28 0-48.64-5.973333-56.32-11.946667-26.453333-4.266667-46.08-27.306667-46.08-54.613333 0-4.266667 0.853333-8.533333 1.706667-11.946667a55.210667 55.210667 0 0 1-27.306667-47.786667c0-5.12 0.853333-9.386667 1.706667-13.653333-23.893333-5.12-42.666667-25.6-44.373334-50.346667-24.746667-1.706667-45.226667-20.48-50.346666-44.373333-4.266667 0.853333-9.386667 1.706667-13.653334 1.706667-26.453333 0-49.493333-18.773333-54.613333-44.373334-4.266667 0.853333-9.386667 1.706667-13.653333 1.706667-30.72 0-55.466667-24.746667-55.466667-55.466667v-5.12-66.56c0-9.386667 7.68-17.066667 17.066667-17.066666 221.013333 0 401.066667 180.053333 401.066666 401.066666 0 8.533333-6.826667 16.213333-15.36 17.066667-17.066667 0.853333-31.573333 1.706667-44.373333 1.706667z m-32.426667-37.546667c7.68 2.56 32.426667 3.413333 58.026667 1.706667-8.533333-188.586667-160.426667-341.333333-349.866667-349.866667v41.813333c0.853333 2.56 0.853333 5.973333 0.853334 9.386667-0.853333 0.853333-0.853333 2.56-0.853334 3.413333 0 11.946667 9.386667 21.333333 21.333334 21.333334 8.533333 0 16.213333-5.12 19.626666-12.8 2.56-5.973333 9.386667-10.24 16.213334-10.24 7.68 0 15.36 5.12 18.773333 11.946666 2.56 5.973333 1.706667 13.653333-2.56 19.626667-2.56 2.56-5.12 6.826667-5.12 12.8 0 11.946667 9.386667 21.333333 21.333333 21.333333 5.973333 0 11.946667-2.56 16.213334-7.68 11.946667-15.36 23.893333-9.386667 27.306666-7.68 2.56 1.706667 13.653333 9.386667 5.12 27.306667-1.706667 2.56-1.706667 5.973333-1.706666 8.533333 0 14.506667 15.36 26.453333 30.72 18.773334 6.826667-3.413333 14.506667-1.706667 19.626666 3.413333 5.12 5.12 6.826667 12.8 3.413334 19.626667-1.706667 2.56-2.56 5.973333-2.56 9.386666 0 11.946667 9.386667 21.333333 21.333333 21.333334h5.12c7.68 0 18.773333 0 24.746667 10.24 5.12 11.093333-1.706667 20.48-4.266667 23.893333-2.56 3.413333-4.266667 7.68-4.266667 12.8 0 10.24 7.68 19.626667 17.92 21.333333 5.973333 0.853333 11.093333 5.12 12.8 10.24s1.706667 11.946667-1.706666 16.213334c-2.56 3.413333-4.266667 7.68-4.266667 11.946666 0 11.946667 9.386667 21.333333 21.333333 21.333334 6.826667 0.853333 11.946667 4.266667 15.36 8.533333zM105.813333 605.013333z" fill="#EC407A" /><path d="M622.933333 893.44s85.333333 8.533333 89.6-8.533333c21.333333 0 38.4-17.066667 38.4-38.4 0-8.533333-2.56-15.36-6.826666-22.186667 18.773333-2.56 32.426667-18.773333 32.426666-37.546667 0-8.533333-2.56-17.066667-7.68-23.04-5.973333-8.533333-1.706667-6.826667 11.946667-6.826666 21.333333 0 38.4-17.066667 38.4-38.4 0-5.973333-1.706667-11.946667-4.266667-17.066667 5.12 2.56 11.093333 4.266667 17.066667 4.266667 21.333333 0 38.4-17.066667 38.4-38.4 0-5.973333-1.706667-11.093333-3.413333-16.213334-3.413333-6.826667-0.853333-7.68 4.266666-1.706666 6.826667 8.533333 17.92 13.653333 29.866667 13.653333 21.333333 0 38.4-17.066667 38.4-38.4 0-9.386667-3.413333-17.92-9.386667-24.746667-0.853333-1.706667 3.413333-3.413333 4.266667-2.56 5.973333 13.653333 19.626667 23.04 34.986667 23.04 21.333333 0 38.4-17.066667 38.4-38.4 0-2.56 0-5.12-0.853334-7.68h0.853334v-64c-213.333333-0.853333-384.853333 171.52-384.853334 383.146667z" fill="#F48FB1" /><path d="M665.6 913.066667c-11.946667 0-26.453333-0.853333-44.373333-2.56-8.533333-0.853333-15.36-8.533333-15.36-17.066667 0-221.013333 180.053333-401.066667 401.066666-401.066667 9.386667 0 17.066667 7.68 17.066667 17.066667v71.68c0 30.72-24.746667 55.466667-55.466667 55.466667-5.12 0-9.386667-0.853333-13.653333-1.706667-5.12 25.6-27.306667 44.373333-54.613333 44.373333-5.12 0-9.386667-0.853333-13.653334-1.706666-5.12 23.893333-25.6 42.666667-50.346666 44.373333-1.706667 24.746667-20.48 45.226667-44.373334 50.346667 0.853333 4.266667 1.706667 9.386667 1.706667 13.653333 0 20.48-10.24 37.546667-27.306667 47.786667 0.853333 4.266667 1.706667 7.68 1.706667 11.946666 0 27.306667-20.48 50.346667-46.08 54.613334-7.68 7.68-23.04 12.8-56.32 12.8z m-25.6-34.986667c25.6 1.706667 49.493333 0.853333 58.026667-1.706667 3.413333-5.12 8.533333-7.68 14.506666-7.68 11.946667 0 21.333333-9.386667 21.333334-21.333333 0-4.266667-1.706667-8.533333-4.266667-11.946667-3.413333-5.12-4.266667-11.093333-1.706667-16.213333s7.68-9.386667 12.8-10.24c10.24-1.706667 17.92-10.24 17.92-21.333333 0-4.266667-1.706667-9.386667-4.266666-12.8-2.56-3.413333-10.24-12.8-4.266667-23.893334 5.12-11.093333 17.066667-10.24 24.746667-10.24h5.12c11.946667 0 21.333333-9.386667 21.333333-21.333333 0-3.413333-0.853333-5.973333-2.56-9.386667-3.413333-6.826667-1.706667-14.506667 3.413333-19.626666 5.12-5.12 12.8-6.826667 19.626667-3.413334 15.36 7.68 30.72-4.266667 30.72-18.773333 0-3.413333-0.853333-5.973333-1.706667-9.386667-8.533333-17.92 2.56-25.6 5.12-27.306666 3.413333-1.706667 15.36-7.68 27.306667 6.826666 4.266667 5.12 10.24 7.68 16.213333 7.68 11.946667 0 21.333333-9.386667 21.333334-21.333333 0-5.973333-2.56-11.093333-5.12-13.653333-4.266667-5.12-5.12-12.8-2.56-18.773334 3.413333-6.826667 11.093333-11.946667 18.773333-11.946666 6.826667 0 13.653333 4.266667 16.213333 10.24 3.413333 7.68 11.093333 12.8 19.626667 12.8 11.946667 0 21.333333-9.386667 21.333333-21.333334 0-1.706667 0-2.56-0.853333-4.266666-0.853333-2.56-0.853333-5.973333 0.853333-8.533334v-41.813333C800.426667 535.893333 648.533333 688.64 640 878.08z m302.933333-288.426667z" fill="#EC407A" /><path d="M1006.933333 219.306667c-320.853333-110.933333-669.013333-110.933333-989.866666 0v93.866666c11.946667-4.266667 23.893333-7.68 35.84-11.946666 5.973333 21.333333 25.6 37.546667 49.493333 37.546666 28.16 0 51.2-23.04 51.2-51.2 0-5.12-0.853333-9.386667-1.706667-13.653333 6.826667-1.706667 14.506667-3.413333 21.333334-5.12 6.826667 20.48 25.6 35.84 48.64 35.84 28.16 0 51.2-23.04 51.2-51.2v-4.266667c3.413333-0.853333 6.826667-0.853333 10.24-1.706666 5.12 23.04 25.6 40.106667 49.493333 40.106666 28.16 0 51.2-23.04 51.2-51.2v-0.853333c5.973333-0.853333 11.946667-0.853333 17.92-1.706667 3.413333 25.6 24.746667 44.373333 50.346667 44.373334 27.306667 0 49.493333-21.333333 51.2-48.64h17.066666c1.706667 27.306667 23.893333 48.64 51.2 48.64 26.453333 0 47.786667-19.626667 50.346667-44.373334 5.973333 0.853333 11.946667 0.853333 17.92 1.706667v0.853333c0 28.16 23.04 51.2 51.2 51.2 24.746667 0 44.373333-17.066667 49.493333-40.106666 3.413333 0.853333 6.826667 0.853333 10.24 1.706666v4.266667c0 28.16 23.04 51.2 51.2 51.2 23.04 0 42.666667-15.36 48.64-35.84 6.826667 1.706667 14.506667 3.413333 21.333334 5.12-0.853333 4.266667-1.706667 9.386667-1.706667 13.653333 0 28.16 23.04 51.2 51.2 51.2 23.893333 0 43.52-16.213333 49.493333-37.546666 11.946667 3.413333 23.893333 7.68 35.84 11.946666v-93.866666z" fill="#F48FB1" /><path d="M921.6 355.84c-34.133333 0-62.293333-25.6-67.413333-58.026667-12.8 14.506667-31.573333 23.893333-52.053334 23.893334-27.306667 0-50.346667-15.36-61.44-38.4-12.8 13.653333-29.866667 21.333333-49.493333 21.333333-27.306667 0-51.2-16.213333-62.293333-40.106667-11.946667 18.773333-33.28 31.573333-57.173334 31.573334-25.6 0-47.786667-14.506667-59.733333-34.986667-11.946667 21.333333-34.133333 34.986667-59.733333 34.986667-23.893333 0-45.226667-12.8-57.173334-31.573334-11.093333 23.893333-34.986667 40.106667-62.293333 40.106667-19.626667 0-36.693333-7.68-49.493333-21.333333-11.093333 23.04-34.133333 38.4-61.44 38.4-20.48 0-39.253333-9.386667-52.053334-23.893334-5.12 32.426667-33.28 58.026667-67.413333 58.026667-24.746667 0-46.933333-12.8-58.88-33.28-6.826667 2.56-13.653333 4.266667-21.333333 6.826667-5.12 1.706667-11.093333 0.853333-15.36-2.56-4.266667-2.56-6.826667-7.68-6.826667-13.653334v-93.866666c0-7.68 4.266667-13.653333 11.093333-16.213334 322.56-110.933333 678.4-110.933333 1000.96 0 6.826667 2.56 11.093333 8.533333 11.093334 16.213334v93.866666c0 5.12-2.56 11.093333-6.826667 13.653334-4.266667 3.413333-10.24 4.266667-15.36 2.56-6.826667-2.56-13.653333-5.12-21.333333-6.826667-11.093333 20.48-33.28 33.28-58.026667 33.28z m-70.826667-104.106667c0.853333 0 2.56 0 3.413334 0.853334 6.826667 1.706667 14.506667 3.413333 21.333333 5.12 4.266667 0.853333 8.533333 4.266667 11.093333 7.68 2.56 4.266667 2.56 8.533333 1.706667 12.8-0.853333 3.413333-1.706667 5.973333-1.706667 9.386666 0 18.773333 15.36 34.133333 34.133334 34.133334 15.36 0 29.013333-10.24 32.426666-24.746667 0.853333-4.266667 4.266667-8.533333 8.533334-10.24 4.266667-2.56 8.533333-2.56 13.653333-0.853333 4.266667 1.706667 9.386667 2.56 13.653333 4.266666v-58.026666C680.96 128 343.04 128 34.133333 232.106667V290.133333c4.266667-1.706667 9.386667-2.56 13.653334-4.266666s9.386667-0.853333 13.653333 0.853333c4.266667 2.56 6.826667 5.973333 8.533333 10.24 4.266667 14.506667 17.92 24.746667 32.426667 24.746667 18.773333 0 34.133333-15.36 34.133333-34.133334 0-3.413333-0.853333-5.973333-1.706666-9.386666-0.853333-4.266667-0.853333-9.386667 1.706666-13.653334 2.56-4.266667 5.973333-6.826667 11.093334-7.68 6.826667-1.706667 14.506667-3.413333 21.333333-5.12 8.533333-1.706667 17.066667 3.413333 20.48 11.946667 4.266667 14.506667 17.92 23.893333 32.426667 23.893333 18.773333 0 34.133333-15.36 34.133333-34.133333v-2.56c-0.853333-8.533333 5.12-17.066667 14.506667-17.92l10.24-1.706667c8.533333-1.706667 17.066667 4.266667 19.626666 12.8 3.413333 15.36 17.066667 26.453333 33.28 26.453334 18.773333 0 34.133333-15.36 34.133334-34.133334v-0.853333c0-9.386667 6.826667-16.213333 15.36-17.066667 5.12 0 10.24-0.853333 14.506666-0.853333h2.56c9.386667-0.853333 17.066667 5.973333 17.92 14.506667 2.56 17.066667 17.066667 29.866667 34.133334 29.866666 17.92 0 33.28-14.506667 34.133333-32.426666 0.853333-9.386667 7.68-16.213333 17.066667-16.213334h17.92c9.386667 0 16.213333 6.826667 17.066666 16.213334 0.853333 17.92 16.213333 32.426667 34.133334 32.426666 17.066667 0 31.573333-12.8 34.133333-29.866666 0.853333-9.386667 9.386667-15.36 17.92-14.506667h2.56c5.12 0 10.24 0.853333 14.506667 0.853333 8.533333 0.853333 15.36 8.533333 15.36 17.066667v0.853333c0 18.773333 15.36 34.133333 34.133333 34.133334 16.213333 0 29.866667-11.093333 33.28-26.453334 1.706667-8.533333 10.24-14.506667 19.626667-12.8l10.24 1.706667c8.533333 1.706667 15.36 9.386667 14.506666 17.92v2.56c0 18.773333 15.36 34.133333 34.133334 34.133333 15.36 0 28.16-9.386667 32.426666-23.893333 1.706667-6.826667 8.533333-11.946667 15.36-11.946667z" fill="#EC407A" /><path d="M358.4 407.04h307.2v93.866667H358.4z" fill="#FFFFFF" /><path d="M665.6 517.973333H358.4c-9.386667 0-17.066667-7.68-17.066667-17.066666v-93.866667c0-9.386667 7.68-17.066667 17.066667-17.066667h307.2c9.386667 0 17.066667 7.68 17.066667 17.066667v93.866667c0 9.386667-7.68 17.066667-17.066667 17.066666z m-290.133333-34.133333h273.066666v-59.733333H375.466667v59.733333z" fill="#EC407A" /></svg>